<?xml version="1.0" encoding="utf-8"?>
<!-- Generator: Adobe Illustrator 23.0.3, SVG Export Plug-In . SVG Version: 6.00 Build 0)  -->
<svg version="1.1" id="Layer_1" xmlns="http://www.w3.org/2000/svg" xmlns:xlink="http://www.w3.org/1999/xlink" x="0px" y="0px"
	 viewBox="0 0 20 20" style="enable-background:new 0 0 20 20;" xml:space="preserve">
<style type="text/css">
	.st0{enable-background:new    ;}
	.st1{fill:#4169E1;}
</style>
<g class="st0">
	<path class="st1" d="M14.9,10l-6.2,6.2c-0.1,0.1-0.2,0.1-0.3,0.1s-0.3,0-0.4-0.1l-0.7-0.7c-0.1-0.1-0.1-0.2-0.1-0.3
		s0.1-0.2,0.1-0.3l5.3-5.3L7.3,4.4C7.2,4.3,7.2,4.2,7.2,4.1s0.1-0.2,0.1-0.3L8,3.1C8.1,3,8.2,3,8.3,3s0.2,0,0.3,0.1l6.2,6.2
		C14.9,9.4,15,9.6,15,9.7S14.9,9.9,14.9,10z"/>
</g>
</svg>
