<?xml version="1.0" encoding="utf-8"?>
<!-- Generator: Adobe Illustrator 23.0.3, SVG Export Plug-In . SVG Version: 6.00 Build 0)  -->
<svg version="1.1" id="Layer_1" xmlns="http://www.w3.org/2000/svg" xmlns:xlink="http://www.w3.org/1999/xlink" x="0px" y="0px"
	 viewBox="0 0 50 48" style="enable-background:new 0 0 50 48;" xml:space="preserve">
<style type="text/css">
	.st0{fill:#FFFFFF;}
</style>
<g>
	<g>
		<path class="st0" d="M50,20.3C50,9.1,38.8,0,25,0C11.2,0,0,9.1,0,20.3c0,10,8.9,18.4,20.9,20c0.8,0.2,1.9,0.5,2.2,1.2
			c0.3,0.6,0.2,1.6,0.1,2.3c0,0-0.3,1.8-0.4,2.1c-0.1,0.6-0.5,2.5,2.2,1.3c2.7-1.1,14.4-8.5,19.6-14.5h0C48.3,28.8,50,24.8,50,20.3z
			 M15.2,26.9h-5c-0.7,0-1.3-0.6-1.3-1.3v-9.9c0-0.7,0.6-1.3,1.3-1.3c0.7,0,1.3,0.6,1.3,1.3v8.6h3.7c0.7,0,1.3,0.6,1.3,1.3
			C16.5,26.4,15.9,26.9,15.2,26.9z M20.4,25.6c0,0.7-0.6,1.3-1.3,1.3c-0.7,0-1.3-0.6-1.3-1.3v-9.9c0-0.7,0.6-1.3,1.3-1.3
			c0.7,0,1.3,0.6,1.3,1.3V25.6z M32.3,25.6c0,0.6-0.4,1.1-0.9,1.2c-0.1,0-0.3,0.1-0.4,0.1c-0.4,0-0.8-0.2-1-0.5l-5.1-6.9v6.1
			c0,0.7-0.6,1.3-1.3,1.3c-0.7,0-1.3-0.6-1.3-1.3v-9.9c0-0.6,0.4-1.1,0.9-1.2c0.1,0,0.3-0.1,0.4-0.1c0.4,0,0.8,0.2,1,0.5l5.1,6.9
			v-6.1c0-0.7,0.6-1.3,1.3-1.3c0.7,0,1.3,0.6,1.3,1.3V25.6z M40.3,19.4c0.7,0,1.3,0.6,1.3,1.3c0,0.7-0.6,1.3-1.3,1.3h-3.7v2.3h3.7
			c0.7,0,1.3,0.6,1.3,1.3c0,0.7-0.6,1.3-1.3,1.3h-5c-0.7,0-1.3-0.6-1.3-1.3v-5c0,0,0,0,0,0c0,0,0,0,0,0v-5c0,0,0,0,0,0
			c0-0.7,0.6-1.3,1.3-1.3h5c0.7,0,1.3,0.6,1.3,1.3c0,0.7-0.6,1.3-1.3,1.3h-3.7v2.3H40.3z"/>
	</g>
</g>
</svg>
