<?xml version="1.0" encoding="utf-8"?>
<!-- Generator: Adobe Illustrator 23.0.3, SVG Export Plug-In . SVG Version: 6.00 Build 0)  -->
<svg version="1.1" xmlns="http://www.w3.org/2000/svg" xmlns:xlink="http://www.w3.org/1999/xlink" x="0px" y="0px"
	 viewBox="0 0 30 30" style="enable-background:new 0 0 30 30;" xml:space="preserve">
<style type="text/css">
	.st0{fill:#FFC72A;}
</style>
<g id="Layer_2">
</g>
<g id="Layer_1">
	<g>
		<path class="st0" d="M24.4,16.3c0,0.7-0.6,1.3-1.3,1.3h-5.6v5.6c0,0.7-0.6,1.3-1.3,1.3h-2.6c-0.7,0-1.3-0.6-1.3-1.3v-5.6H6.9
			c-0.7,0-1.3-0.6-1.3-1.3v-2.6c0-0.7,0.6-1.3,1.3-1.3h5.6V6.9c0-0.7,0.6-1.3,1.3-1.3h2.6c0.7,0,1.3,0.6,1.3,1.3v5.6h5.6
			c0.7,0,1.3,0.6,1.3,1.3V16.3z"/>
	</g>
</g>
</svg>
