<?xml version="1.0" encoding="utf-8"?>
<!-- Generator: Adobe Illustrator 23.0.3, SVG Export Plug-In . SVG Version: 6.00 Build 0)  -->
<svg version="1.1" id="Layer_1" xmlns="http://www.w3.org/2000/svg" xmlns:xlink="http://www.w3.org/1999/xlink" x="0px" y="0px"
	 viewBox="0 0 20 20" style="enable-background:new 0 0 20 20;" xml:space="preserve">
<style type="text/css">
	.st0{enable-background:new    ;}
	.st1{fill:#415464;}
</style>
<g>
	<g class="st0">
		<path class="st1" d="M14,4.4L8.7,9.7L14,15c0.1,0.1,0.1,0.2,0.1,0.3S14,15.5,14,15.6l-0.7,0.7c-0.1,0.1-0.2,0.1-0.3,0.1
			s-0.2-0.1-0.3-0.1L6.5,10C6.4,9.9,6.3,9.8,6.3,9.7s0.1-0.2,0.1-0.3l6.2-6.2C12.8,3,12.9,3,13,3s0.2,0.1,0.3,0.1L14,3.8
			c0.1,0.1,0.1,0.2,0.1,0.3S14.1,4.3,14,4.4z"/>
	</g>
</g>
</svg>
